<?xml version="1.0" encoding="UTF-8"?>
<svg xmlns:xlink="http://www.w3.org/1999/xlink" xmlns="http://www.w3.org/2000/svg" contentScriptType="text/ecmascript" width="841" zoomAndPan="magnify" contentStyleType="text/css" height="1366" preserveAspectRatio="xMidYMid meet" version="1.0">
<g>
<path style="fill:none;stroke:rgb(0,0,0);stroke-width:1" d="M305.250000 729.672925 C305.250000 729.672925 305.250000 729.672925 305.250000 729.672925 305.250000 729.672925 305.250000 729.672925 305.250000 729.672925 305.250000 729.672925 305.250000 729.672925 305.250000 729.672925 305.250000 729.672925 305.250000 729.672925 305.250000 729.672925 305.250000 716.339591 305.250000 703.006258 305.250000 689.672925 "/>
<path style="fill:rgb(0,0,0);stroke:none" d="M305.250000 689.672925 L301.666714 702.169327 L308.833286 702.169327 z"/>
</g>
<g>
<path style="fill:none;stroke:rgb(0,0,0);stroke-width:1" d="M414.250000 603.158765 C414.250000 600.936542 414.250000 598.714320 414.250000 596.492098 414.250000 593.158765 414.250000 593.158765 407.166667 579.825431 404.805556 575.380987 402.444444 570.936542 400.083333 566.492098 393.000000 553.158765 393.000000 553.158765 393.000000 548.158765 393.000000 544.825431 393.000000 541.492098 393.000000 538.158765 "/>
<path style="fill:rgb(0,0,0);stroke:none" d="M393.000000 538.158765 L389.416714 550.655167 L396.583286 550.655167 z"/>
</g>
<g>
<path style="fill:none;stroke:rgb(0,0,0);stroke-width:1" d="M255.000000 443.352979 C255.000000 443.352979 255.000000 443.352979 255.000000 443.352979 255.000000 443.352979 255.000000 443.352979 255.000000 443.352979 255.000000 443.352979 255.000000 443.352979 255.000000 443.352979 255.000000 443.352979 255.000000 443.352979 255.000000 443.352979 255.000000 335.378060 255.000000 227.403141 255.000000 119.428223 "/>
<path style="fill:rgb(0,0,0);stroke:none" d="M255.000000 119.428223 L251.416714 131.924625 L258.583286 131.924625 z"/>
</g>
<g>
<path style="fill:none;stroke:rgb(0,0,0);stroke-width:1" d="M676.000000 437.808667 C676.000000 435.586445 676.000000 433.364223 676.000000 431.142000 676.000000 427.808667 676.000000 427.808667 651.500000 414.475334 643.333333 410.030889 635.166667 405.586445 627.000000 401.142000 602.500000 387.808667 602.500000 387.808667 602.500000 382.808667 602.500000 379.475334 602.500000 376.142000 602.500000 372.808667 "/>
<path style="fill:rgb(0,0,0);stroke:none" d="M602.500000 372.808667 L598.916714 385.305069 L606.083286 385.305069 z"/>
</g>
<g>
<path style="fill:none;stroke:rgb(0,0,0);stroke-width:1" d="M419.000000 179.908569 C419.000000 157.442464 419.000000 134.976359 419.000000 112.510254 "/>
<path style="fill:rgb(0,0,0);stroke:none" d="M419.000000 112.510254 L415.416714 125.006656 L422.583286 125.006656 z"/>
</g>
<g>
<path style="fill:none;stroke:rgb(0,0,0);stroke-width:1" d="M326.500000 1218.649902 C326.500000 1205.316569 326.500000 1191.983236 326.500000 1178.649902 "/>
<path style="fill:rgb(0,0,0);stroke:none" d="M326.500000 1178.649902 L322.916714 1191.146304 L330.083286 1191.146304 z"/>
</g>
<g>
<path style="fill:none;stroke:rgb(0,0,0);stroke-width:1" d="M547.500000 444.726636 C547.500000 444.726636 547.500000 444.726636 547.500000 444.726636 547.500000 444.726636 547.500000 444.726636 547.500000 444.726636 547.500000 444.726636 547.500000 444.726636 547.500000 444.726636 547.500000 444.726636 547.500000 444.726636 547.500000 444.726636 547.500000 420.753979 547.500000 396.781323 547.500000 372.808667 "/>
<path style="fill:rgb(0,0,0);stroke:none" d="M547.500000 372.808667 L543.916714 385.305069 L551.083286 385.305069 z"/>
</g>
<g>
<path style="fill:none;stroke:rgb(0,0,0);stroke-width:1" d="M58.000000 891.673535 C58.000000 889.451313 58.000000 887.229091 58.000000 885.006868 58.000000 881.673535 58.000000 881.673535 91.000000 855.010286 102.000000 846.122537 113.000000 837.234787 124.000000 828.347038 157.000000 801.683789 157.000000 801.683789 157.000000 796.683789 157.000000 793.350456 157.000000 790.017122 157.000000 786.683789 "/>
<path style="fill:rgb(0,0,0);stroke:none" d="M157.000000 786.683789 L153.416714 799.180191 L160.583286 799.180191 z"/>
</g>
<g>
<path style="fill:none;stroke:rgb(0,0,0);stroke-width:1" d="M167.000000 888.002637 C167.000000 888.002637 167.000000 888.002637 167.000000 888.002637 167.000000 888.002637 167.000000 888.002637 167.000000 888.002637 167.000000 888.002637 167.000000 888.002637 167.000000 888.002637 167.000000 888.002637 167.000000 888.002637 167.000000 888.002637 167.000000 854.229687 167.000000 820.456738 167.000000 786.683789 "/>
<path style="fill:rgb(0,0,0);stroke:none" d="M167.000000 786.683789 L163.416714 799.180191 L170.583286 799.180191 z"/>
</g>
<g>
<path style="fill:none;stroke:rgb(0,0,0);stroke-width:1" d="M162.000000 766.683789 C162.000000 764.461567 162.000000 762.239345 162.000000 760.017122 162.000000 756.683789 162.000000 756.683789 191.416667 739.346834 201.222222 733.567849 211.027778 727.788864 220.833333 722.009880 250.250000 704.672925 250.250000 704.672925 250.250000 699.672925 250.250000 696.339591 250.250000 693.006258 250.250000 689.672925 "/>
<path style="fill:rgb(0,0,0);stroke:none" d="M250.250000 689.672925 L246.666714 702.169327 L253.833286 702.169327 z"/>
</g>
<g>
<path style="fill:none;stroke:rgb(0,0,0);stroke-width:1" d="M314.500000 1092.135742 C314.500000 1089.913520 314.500000 1087.691298 314.500000 1085.469076 314.500000 1082.135742 314.500000 1082.135742 265.333333 1048.985742 248.944444 1037.935742 232.555556 1026.885742 216.166667 1015.835742 167.000000 982.685742 167.000000 982.685742 167.000000 977.685742 167.000000 974.352409 167.000000 971.019076 167.000000 967.685742 "/>
<path style="fill:rgb(0,0,0);stroke:none" d="M167.000000 967.685742 L163.416714 980.182144 L170.583286 980.182144 z"/>
</g>
<g>
<path style="fill:none;stroke:rgb(0,0,0);stroke-width:1" d="M414.000000 312.633618 C414.000000 275.058602 414.000000 237.483586 414.000000 199.908569 "/>
<path style="fill:rgb(0,0,0);stroke:none" d="M414.000000 199.908569 L410.416714 212.404971 L417.583286 212.404971 z"/>
</g>
<g>
<path style="fill:none;stroke:rgb(0,0,0);stroke-width:1" d="M602.500000 272.458569 C602.500000 270.236347 602.500000 268.014125 602.500000 265.791903 602.500000 262.458569 602.500000 262.458569 549.666667 246.608569 532.055556 241.325236 514.444444 236.041903 496.833333 230.758569 444.000000 214.908569 444.000000 214.908569 444.000000 203.241903 444.000000 199.353014 444.000000 195.464125 444.000000 191.575236 444.000000 179.908569 444.000000 179.908569 397.666667 164.748454 382.222222 159.695082 366.777778 154.641710 351.333333 149.588338 305.000000 134.428223 305.000000 134.428223 305.000000 129.428223 305.000000 126.094889 305.000000 122.761556 305.000000 119.428223 "/>
<path style="fill:rgb(0,0,0);stroke:none" d="M305.000000 119.428223 L301.416714 131.924625 L308.583286 131.924625 z"/>
</g>
<g>
<path style="fill:none;stroke:rgb(0,0,0);stroke-width:1" d="M286.000000 888.002637 C286.000000 888.002637 286.000000 888.002637 286.000000 888.002637 286.000000 888.002637 286.000000 888.002637 286.000000 888.002637 286.000000 888.002637 286.000000 888.002637 286.000000 888.002637 286.000000 888.002637 286.000000 888.002637 286.000000 888.002637 286.000000 866.566642 286.000000 845.130648 286.000000 823.694653 "/>
<path style="fill:rgb(0,0,0);stroke:none" d="M286.000000 823.694653 L282.416714 836.191055 L289.583286 836.191055 z"/>
</g>
<g>
<path style="fill:none;stroke:rgb(0,0,0);stroke-width:1" d="M300.500000 443.352979 C300.500000 441.130756 300.500000 438.908534 300.500000 436.686312 300.500000 433.352979 300.500000 433.352979 336.666667 404.779858 348.722222 395.255485 360.777778 385.731112 372.833333 376.206738 409.000000 347.633618 409.000000 347.633618 409.000000 342.633618 409.000000 339.300285 409.000000 335.966951 409.000000 332.633618 "/>
<path style="fill:rgb(0,0,0);stroke:none" d="M409.000000 332.633618 L405.416714 345.130020 L412.583286 345.130020 z"/>
</g>
<g>
<path style="fill:none;stroke:rgb(0,0,0);stroke-width:1" d="M547.500000 272.458569 C547.500000 270.236347 547.500000 268.014125 547.500000 265.791903 547.500000 262.458569 547.500000 262.458569 506.333333 246.608569 492.611111 241.325236 478.888889 236.041903 465.166667 230.758569 424.000000 214.908569 424.000000 214.908569 424.000000 209.908569 424.000000 206.575236 424.000000 203.241903 424.000000 199.908569 "/>
<path style="fill:rgb(0,0,0);stroke:none" d="M424.000000 199.908569 L420.416714 212.404971 L427.583286 212.404971 z"/>
</g>
<g>
<path style="fill:none;stroke:rgb(0,0,0);stroke-width:1" d="M676.000000 589.322827 C676.000000 589.322827 676.000000 589.322827 676.000000 589.322827 676.000000 589.322827 676.000000 589.322827 676.000000 589.322827 676.000000 589.322827 676.000000 589.322827 676.000000 589.322827 676.000000 589.322827 676.000000 589.322827 676.000000 589.322827 676.000000 589.322827 676.000000 589.322827 676.000000 589.322827 676.000000 589.322827 676.000000 589.322827 676.000000 589.322827 676.000000 589.322827 676.000000 589.322827 676.000000 589.322827 676.000000 589.322827 676.000000 589.322827 676.000000 589.322827 676.000000 572.268140 676.000000 555.213452 676.000000 538.158765 "/>
<path style="fill:rgb(0,0,0);stroke:none" d="M676.000000 538.158765 L672.416714 550.655167 L679.583286 550.655167 z"/>
</g>
<g>
<path style="fill:none;stroke:rgb(0,0,0);stroke-width:1" d="M744.000000 152.510254 C744.000000 139.176921 744.000000 125.843587 744.000000 112.510254 "/>
<path style="fill:rgb(0,0,0);stroke:none" d="M744.000000 112.510254 L740.416714 125.006656 L747.583286 125.006656 z"/>
</g>
<g>
<path style="fill:none;stroke:rgb(0,0,0);stroke-width:1" d="M417.500000 888.694653 C417.500000 886.472431 417.500000 884.250209 417.500000 882.027987 417.500000 878.694653 417.500000 878.694653 386.500000 865.361320 376.166667 860.916876 365.833333 856.472431 355.500000 852.027987 324.500000 838.694653 324.500000 838.694653 324.500000 833.694653 324.500000 830.361320 324.500000 827.027987 324.500000 823.694653 "/>
<path style="fill:rgb(0,0,0);stroke:none" d="M324.500000 823.694653 L320.916714 836.191055 L328.083286 836.191055 z"/>
</g>
<g>
<path style="fill:none;stroke:rgb(0,0,0);stroke-width:1" d="M362.500000 1092.135742 C362.500000 1089.913520 362.500000 1087.691298 362.500000 1085.469076 362.500000 1082.135742 362.500000 1082.135742 489.666667 1043.985742 532.055556 1031.269076 574.444444 1018.552409 616.833333 1005.835742 744.000000 967.685742 744.000000 967.685742 744.000000 720.892790 744.000000 556.364155 744.000000 391.835520 744.000000 227.306885 "/>
<path style="fill:rgb(0,0,0);stroke:none" d="M744.000000 227.306885 L740.416714 239.803287 L747.583286 239.803287 z"/>
</g>
<g>
<path style="fill:none;stroke:rgb(0,0,0);stroke-width:1" d="M419.000000 437.808667 C419.000000 437.808667 419.000000 437.808667 419.000000 437.808667 419.000000 437.808667 419.000000 437.808667 419.000000 437.808667 419.000000 437.808667 419.000000 437.808667 419.000000 437.808667 419.000000 437.808667 419.000000 437.808667 419.000000 437.808667 419.000000 402.750317 419.000000 367.691968 419.000000 332.633618 "/>
<path style="fill:rgb(0,0,0);stroke:none" d="M419.000000 332.633618 L415.416714 345.130020 L422.583286 345.130020 z"/>
</g>
<g>
<path style="fill:none;stroke:rgb(0,0,0);stroke-width:1" d="M290.500000 1092.135742 C290.500000 1089.913520 290.500000 1087.691298 290.500000 1085.469076 290.500000 1082.135742 290.500000 1082.135742 213.000000 1048.985742 187.166667 1037.935742 161.333333 1026.885742 135.500000 1015.835742 58.000000 982.685742 58.000000 982.685742 58.000000 976.462109 58.000000 972.313021 58.000000 968.163932 58.000000 964.014844 "/>
<path style="fill:rgb(0,0,0);stroke:none" d="M58.000000 964.014844 L54.416714 976.511246 L61.583286 976.511246 z"/>
</g>
<g>
<path style="fill:none;stroke:rgb(0,0,0);stroke-width:1" d="M277.750000 589.322827 C277.750000 570.420036 277.750000 551.517244 277.750000 532.614453 "/>
<path style="fill:rgb(0,0,0);stroke:none" d="M277.750000 532.614453 L274.166714 545.110855 L281.333286 545.110855 z"/>
</g>
<g>
<path style="fill:none;stroke:rgb(0,0,0);stroke-width:1" d="M338.500000 1092.135742 C338.500000 1089.913520 338.500000 1087.691298 338.500000 1085.469076 338.500000 1082.135742 338.500000 1082.135742 387.666667 1043.985742 404.055556 1031.269076 420.444444 1018.552409 436.833333 1005.835742 486.000000 967.685742 486.000000 967.685742 486.000000 846.176750 486.000000 805.673752 486.000000 765.170755 486.000000 724.667757 486.000000 603.158765 486.000000 603.158765 472.333333 586.492098 467.777778 580.936542 463.222222 575.380987 458.666667 569.825431 445.000000 553.158765 445.000000 553.158765 445.000000 548.158765 445.000000 544.825431 445.000000 541.492098 445.000000 538.158765 "/>
<path style="fill:rgb(0,0,0);stroke:none" d="M445.000000 538.158765 L441.416714 550.655167 L448.583286 550.655167 z"/>
</g>
<g>
<rect x="20.0" y="891.673535156" width="76.0" style="fill:rgb(255,255,255);stroke-width:1;stroke:rgb(0,0,0)" rx="10" ry="10" height="72.3413085938"/>
<text style="fill:rgb(0,0,0);font-family:Arial;font-size:17px">
<tspan x="37.5" y="922.303894043">Hablo </tspan>
<tspan x="28.0" y="943.686706543">de Ética</tspan>
</text>
</g>
<g>
<rect x="238.0" y="888.002636719" width="96.0" style="fill:rgb(255,255,255);stroke-width:1;stroke:rgb(0,0,0)" rx="10" ry="10" height="79.6831054688"/>
<text style="fill:rgb(0,0,0);font-family:Arial;font-size:13px">
<tspan x="246.0" y="915.664245605">7H es sentido </tspan>
<tspan x="266.5" y="932.015808105">común </tspan>
<tspan x="254.5" y="948.367370605">organizado</tspan>
</text>
</g>
<g>
<rect x="232.25" y="443.352978516" width="91.0" style="fill:rgb(255,255,255);stroke-width:1;stroke:rgb(0,0,0)" rx="10" ry="10" height="89.2614746094"/>
<text style="fill:rgb(0,0,0);font-family:Arial;font-size:12px">
<tspan x="250.75" y="470.280212402">Podemos </tspan>
<tspan x="240.25" y="484.745056152">enseñar ética </tspan>
<tspan x="253.25" y="499.209899902">de modo </tspan>
<tspan x="246.75" y="513.674743652">pragmatico</tspan>
</text>
</g>
<g>
<rect x="362.75" y="603.158764648" width="103.0" style="fill:rgb(255,255,255);stroke-width:1;stroke:rgb(0,0,0)" rx="10" ry="10" height="72.6782226562"/>
<text style="fill:rgb(0,0,0);font-family:Arial;font-size:11px">
<tspan x="380.25" y="629.351623535">Se entiende el </tspan>
<tspan x="370.75" y="643.187561035">concepto semitico </tspan>
<tspan x="390.25" y="657.023498535">de justicia</tspan>
</text>
<g>
<circle r="5.0" style="fill:rgb(255,255,128);stroke-width:0.75;stroke:rgb(128,82,0)" cx="460.75" cy="670.836987305"/>
</g>
</g>
<g>
<rect x="278.5" y="1092.13574219" width="96.0" style="fill:rgb(255,255,255);stroke-width:1;stroke:rgb(0,0,0)" rx="10" ry="10" height="86.5141601562"/>
<text style="fill:rgb(0,0,0);font-family:Arial;font-size:11px">
<tspan x="286.5" y="1118.32861328">Hablo de hábitos </tspan>
<tspan x="286.5" y="1132.16455078">que me enseñen </tspan>
<tspan x="288.5" y="1146.00048828">a desarrollar un </tspan>
<tspan x="298.5" y="1159.83642578">marco ético</tspan>
</text>
</g>
<g>
<rect x="367.0" y="437.808666992" width="104.0" style="fill:rgb(255,255,255);stroke-width:1;stroke:rgb(0,0,0)" rx="10" ry="10" height="100.350097656"/>
<text style="fill:rgb(0,0,0);font-family:Arial;font-size:11px">
<tspan x="375.0" y="464.001525879">Es posible usar  el </tspan>
<tspan x="386.0" y="477.837463379">concepto que </tspan>
<tspan x="388.5" y="491.673400879">tiene Dussell </tspan>
<tspan x="378.0" y="505.509338379">desde la ética de </tspan>
<tspan x="390.5" y="519.345275879">la liberación</tspan>
</text>
<g>
<circle r="5.0" style="fill:rgb(255,255,128);stroke-width:0.75;stroke:rgb(128,82,0)" cx="466.0" cy="533.158764648"/>
</g>
</g>
<g>
<rect x="364.0" y="888.69465332" width="107.0" style="fill:rgb(255,255,255);stroke-width:1;stroke:rgb(0,0,0)" rx="10" ry="10" height="78.2990722656"/>
<text style="fill:rgb(0,0,0);font-family:Arial;font-size:13px">
<tspan x="397.0" y="916.356262207">7H son </tspan>
<tspan x="372.0" y="932.078918457">escencialmente </tspan>
<tspan x="382.0" y="947.801574707">pragmaticos</tspan>
</text>
</g>
<g>
<rect x="696.5" y="25.99609375" width="95.0" style="fill:rgb(255,255,255);stroke-width:1;stroke:rgb(0,0,0)" rx="10" ry="10" height="86.5141601562"/>
<text style="fill:rgb(0,0,0);font-family:Arial;font-size:11px">
<tspan x="712.5" y="52.1889648438">La busqueda </tspan>
<tspan x="709.5" y="66.0249023438">del poder esta </tspan>
<tspan x="704.5" y="79.8608398438">muy relacionado </tspan>
<tspan x="721.0" y="93.6967773438">a "lo uno"</tspan>
</text>
</g>
<g>
<rect x="624.0" y="437.808666992" width="104.0" style="fill:rgb(255,255,255);stroke-width:1;stroke:rgb(0,0,0)" rx="10" ry="10" height="100.350097656"/>
<text style="fill:rgb(0,0,0);font-family:Arial;font-size:11px">
<tspan x="632.0" y="464.001525879">Debemos conocer </tspan>
<tspan x="632.5" y="477.837463379">lo que los pueblos  </tspan>
<tspan x="653.5" y="491.673400879">semiticos </tspan>
<tspan x="638.0" y="505.509338379">entendieron por </tspan>
<tspan x="659.5" y="519.345275879">justicia</tspan>
</text>
</g>
<g>
<rect x="276.5" y="1218.64990234" width="100.0" style="fill:rgb(255,255,255);stroke-width:1;stroke:rgb(0,0,0)" rx="10" ry="10" height="100.350097656"/>
<text style="fill:rgb(0,0,0);font-family:Arial;font-size:11px">
<tspan x="284.5" y="1244.84277344">Minecan dice que </tspan>
<tspan x="293.0" y="1258.67871094">es en "lo uno" </tspan>
<tspan x="296.5" y="1272.51464844">sobre lo que </tspan>
<tspan x="286.0" y="1286.35058594">podemos ejercer </tspan>
<tspan x="312.5" y="1300.18652344">poder</tspan>
</text>
</g>
<g>
<rect x="126.0" y="888.002636719" width="82.0" style="fill:rgb(255,255,255);stroke-width:1;stroke:rgb(0,0,0)" rx="10" ry="10" height="79.6831054688"/>
<text style="fill:rgb(0,0,0);font-family:Arial;font-size:13px">
<tspan x="141.5" y="915.664245605">Hablo de </tspan>
<tspan x="134.0" y="932.015808105">principios y </tspan>
<tspan x="147.0" y="948.367370605">valores</tspan>
</text>
</g>
<g>
<rect x="501.0" y="444.726635742" width="93.0" style="fill:rgb(255,255,255);stroke-width:1;stroke:rgb(0,0,0)" rx="10" ry="10" height="86.5141601562"/>
<text style="fill:rgb(0,0,0);font-family:Arial;font-size:11px">
<tspan x="521.0" y="470.919494629">El segundo </tspan>
<tspan x="509.0" y="484.755432129">hábito de los 7H </tspan>
<tspan x="509.0" y="498.591369629">es "Tener un fin </tspan>
<tspan x="523.5" y="512.427307129">en mente"</tspan>
</text>
</g>
<g>
<rect x="694.0" y="152.510253906" width="100.0" style="fill:rgb(255,255,255);stroke-width:1;stroke:rgb(0,0,0)" rx="10" ry="10" height="74.7966308594"/>
<text style="fill:rgb(0,0,0);font-family:Arial;font-size:12px">
<tspan x="702.0" y="179.4375">Los 7H buscan </tspan>
<tspan x="705.0" y="193.90234375">disciplinarnos </tspan>
<tspan x="714.5" y="208.3671875">en "lo uno"</tspan>
</text>
</g>
<g>
<rect x="520.0" y="272.458569336" width="110.0" style="fill:rgb(255,255,255);stroke-width:1;stroke:rgb(0,0,0)" rx="10" ry="10" height="100.350097656"/>
<text style="fill:rgb(0,0,0);font-family:Arial;font-size:11px">
<tspan x="537.5" y="298.651428223">Tener en mente </tspan>
<tspan x="534.5" y="312.487365723">hacer el bien por </tspan>
<tspan x="528.0" y="326.323303223">medio del respeto a </tspan>
<tspan x="528.0" y="340.159240723">la vida del otro y de </tspan>
<tspan x="545.0" y="353.995178223">su bienestar</tspan>
</text>
</g>
<g>
<rect x="266.75" y="729.672924805" width="77.0" style="fill:rgb(255,255,255);stroke-width:1;stroke:rgb(0,0,0)" rx="10" ry="10" height="94.0217285156"/>
<text style="fill:rgb(0,0,0);font-family:Arial;font-size:13px">
<tspan x="284.75" y="757.334533691">7H son </tspan>
<tspan x="275.25" y="773.057189941">hábitos en </tspan>
<tspan x="274.75" y="788.779846191">un entorno </tspan>
<tspan x="291.25" y="804.502502441">ético</tspan>
</text>
</g>
<g>
<rect x="222.75" y="589.322827148" width="110.0" style="fill:rgb(255,255,255);stroke-width:1;stroke:rgb(0,0,0)" rx="10" ry="10" height="100.350097656"/>
<text style="fill:rgb(0,0,0);font-family:Arial;font-size:11px">
<tspan x="239.25" y="615.515686035">Hablar de 7H es </tspan>
<tspan x="244.75" y="629.351623535">hablar de una </tspan>
<tspan x="241.25" y="643.187561035">técnica que me </tspan>
<tspan x="230.75" y="657.023498535">ayuda a desarrollar </tspan>
<tspan x="244.75" y="670.859436035">mi efectividad</tspan>
</text>
</g>
<g>
<rect x="623.0" y="589.322827148" width="106.0" style="fill:rgb(255,255,255);stroke-width:1;stroke:rgb(0,0,0)" rx="10" ry="10" height="100.350097656"/>
<text style="fill:rgb(0,0,0);font-family:Arial;font-size:11px">
<tspan x="631.0" y="615.515686035">Dussell cita mucho </tspan>
<tspan x="644.0" y="629.351623535">a los pueblos </tspan>
<tspan x="641.0" y="643.187561035">semiticos para </tspan>
<tspan x="634.0" y="657.023498535">sustentar su idea </tspan>
<tspan x="652.0" y="670.859436035">de justicia</tspan>
</text>
</g>
<g>
<rect x="230.0" y="19.078125" width="100.0" style="fill:rgb(255,255,255);stroke-width:1;stroke:rgb(0,0,0)" rx="10" ry="10" height="100.350097656"/>
<text style="fill:rgb(0,0,0);font-family:Arial;font-size:11px">
<tspan x="253.5" y="45.2709960938">Desarrollar </tspan>
<tspan x="241.5" y="59.1069335938">hábitos que nos </tspan>
<tspan x="259.5" y="72.9428710938">permitan </tspan>
<tspan x="238.0" y="86.7788085938">conseguir justicia </tspan>
<tspan x="266.0" y="100.614746094">social</tspan>
</text>
</g>
<g>
<rect x="360.0" y="25.99609375" width="118.0" style="fill:rgb(255,255,255);stroke-width:1;stroke:rgb(0,0,0)" rx="10" ry="10" height="86.5141601562"/>
<text style="fill:rgb(0,0,0);font-family:Arial;font-size:11px">
<tspan x="368.0" y="52.1889648438">Es posible encuadrar </tspan>
<tspan x="378.0" y="66.0249023438">el caracter de un </tspan>
<tspan x="375.0" y="79.8608398438">poítico a un marco </tspan>
<tspan x="380.5" y="93.6967773438">ético respetable</tspan>
</text>
</g>
<g>
<circle r="10.0" style="fill:rgb(230,255,255);stroke-width:1;stroke:rgb(0,0,0)" cx="419.0" cy="189.908569336"/>
<text style="font-family:Arial;font-size:8px;font-weight:bold" x="410.0" y="192.869506836">AND</text>
</g>
<g>
<circle r="10.0" style="fill:rgb(230,255,255);stroke-width:1;stroke:rgb(0,0,0)" cx="414.0" cy="322.633618164"/>
<text style="font-family:Arial;font-size:8px;font-weight:bold" x="405.0" y="325.594555664">AND</text>
</g>
<g>
<circle r="10.0" style="fill:rgb(230,255,255);stroke-width:1;stroke:rgb(0,0,0)" cx="162.0" cy="776.683789062"/>
<text style="font-family:Arial;font-size:8px;font-weight:bold" x="153.0" y="779.644726562">AND</text>
</g>
</svg>
