<?xml version="1.0" encoding="UTF-8"?>
<svg xmlns:xlink="http://www.w3.org/1999/xlink" xmlns="http://www.w3.org/2000/svg" contentScriptType="text/ecmascript" width="1019" zoomAndPan="magnify" contentStyleType="text/css" height="1308" preserveAspectRatio="xMidYMid meet" version="1.0">
<g>
<path style="fill:none;stroke:rgb(0,0,0);stroke-width:1" d="M186.000000 324.149780 C186.000000 324.149780 186.000000 324.149780 186.000000 324.149780 186.000000 324.149780 186.000000 324.149780 186.000000 324.149780 186.000000 324.149780 186.000000 324.149780 186.000000 324.149780 186.000000 324.149780 186.000000 324.149780 186.000000 324.149780 186.000000 297.882650 186.000000 271.615519 186.000000 245.348389 "/>
<path style="fill:rgb(0,0,0);stroke:none" d="M186.000000 245.348389 L182.416714 257.844791 L189.583286 257.844791 z"/>
</g>
<g>
<path style="fill:none;stroke:rgb(0,0,0);stroke-width:1" d="M343.500000 692.042847 C343.500000 692.042847 343.500000 692.042847 343.500000 692.042847 343.500000 692.042847 343.500000 692.042847 343.500000 692.042847 343.500000 692.042847 343.500000 692.042847 343.500000 692.042847 343.500000 692.042847 343.500000 692.042847 343.500000 692.042847 343.500000 667.518026 343.500000 642.993205 343.500000 618.468384 "/>
<path style="fill:rgb(0,0,0);stroke:none" d="M343.500000 618.468384 L339.916714 630.964786 L347.083286 630.964786 z"/>
<g>
<circle r="5.0" style="fill:rgb(255,255,128);stroke-width:0.75;stroke:rgb(128,82,0)" cx="343.5" cy="655.255615234"/>
</g>
</g>
<g>
<path style="fill:none;stroke:rgb(0,0,0);stroke-width:1" d="M656.000000 525.036255 C656.000000 449.511163 656.000000 373.986070 656.000000 298.460978 656.000000 185.173340 656.000000 185.173340 617.666667 170.812663 604.888889 166.025770 592.111111 161.238878 579.333333 156.451986 541.000000 142.091309 541.000000 142.091309 541.000000 137.091309 541.000000 133.757975 541.000000 130.424642 541.000000 127.091309 "/>
<path style="fill:rgb(0,0,0);stroke:none" d="M541.000000 127.091309 L537.416714 139.587711 L544.583286 139.587711 z"/>
</g>
<g>
<path style="fill:none;stroke:rgb(0,0,0);stroke-width:1" d="M460.000000 692.734863 C460.000000 690.512641 460.000000 688.290419 460.000000 686.068197 460.000000 682.734863 460.000000 682.734863 432.166667 666.312703 422.888889 660.838650 413.611111 655.364597 404.333333 649.890544 376.500000 633.468384 376.500000 633.468384 376.500000 628.468384 376.500000 625.135050 376.500000 621.801717 376.500000 618.468384 "/>
<path style="fill:rgb(0,0,0);stroke:none" d="M376.500000 618.468384 L372.916714 630.964786 L380.083286 630.964786 z"/>
<g>
<circle r="5.0" style="fill:rgb(255,255,128);stroke-width:0.75;stroke:rgb(128,82,0)" cx="417.155851629" cy="657.456056609"/>
</g>
</g>
<g>
<path style="fill:none;stroke:rgb(0,0,0);stroke-width:1" d="M623.500000 683.468384 C623.500000 681.246162 623.500000 679.023939 623.500000 676.801717 623.500000 673.468384 623.500000 673.468384 673.333333 652.829061 689.944444 645.949287 706.555556 639.069512 723.166667 632.189738 773.000000 611.550415 773.000000 611.550415 773.000000 447.758057 773.000000 338.563151 773.000000 229.368245 773.000000 120.173340 "/>
<path style="fill:rgb(0,0,0);stroke:none" d="M773.000000 120.173340 L769.416714 132.669742 L776.583286 132.669742 z"/>
</g>
<g>
<path style="fill:none;stroke:rgb(0,0,0);stroke-width:1" d="M536.500000 1043.211426 C536.500000 1040.989204 536.500000 1038.766981 536.500000 1036.544759 536.500000 1033.211426 536.500000 1033.211426 525.166667 1019.542603 521.388889 1014.986328 517.611111 1010.430054 513.833333 1005.873779 502.500000 992.204956 502.500000 992.204956 502.500000 987.204956 502.500000 983.871623 502.500000 980.538289 502.500000 977.204956 "/>
<path style="fill:rgb(0,0,0);stroke:none" d="M502.500000 977.204956 L498.916714 989.701358 L506.083286 989.701358 z"/>
</g>
<g>
<path style="fill:none;stroke:rgb(0,0,0);stroke-width:1" d="M525.250000 887.943481 C525.250000 885.721259 525.250000 883.499037 525.250000 881.276815 525.250000 877.943481 525.250000 877.943481 539.666667 851.568481 544.472222 842.776815 549.277778 833.985148 554.083333 825.193481 568.500000 798.818481 568.500000 798.818481 568.500000 793.818481 568.500000 790.485148 568.500000 787.151815 568.500000 783.818481 "/>
<path style="fill:rgb(0,0,0);stroke:none" d="M568.500000 783.818481 L564.916714 796.314883 L572.083286 796.314883 z"/>
</g>
<g>
<path style="fill:none;stroke:rgb(0,0,0);stroke-width:1" d="M479.750000 887.943481 C479.750000 887.943481 479.750000 887.943481 479.750000 887.943481 479.750000 887.943481 479.750000 887.943481 479.750000 887.943481 479.750000 885.721259 479.750000 883.499037 479.750000 881.276815 479.750000 877.943481 479.750000 877.943481 375.166667 846.568481 340.305556 836.110148 305.444444 825.651815 270.583333 815.193481 166.000000 783.818481 166.000000 783.818481 166.000000 660.349406 166.000000 578.036689 166.000000 495.723972 166.000000 413.411255 "/>
<path style="fill:rgb(0,0,0);stroke:none" d="M166.000000 413.411255 L162.416714 425.907657 L169.583286 425.907657 z"/>
</g>
<g>
<path style="fill:none;stroke:rgb(0,0,0);stroke-width:1" d="M348.500000 358.780518 C348.500000 358.780518 348.500000 358.780518 348.500000 358.780518 348.500000 358.780518 348.500000 358.780518 348.500000 358.780518 348.500000 358.780518 348.500000 358.780518 348.500000 358.780518 348.500000 358.780518 348.500000 358.780518 348.500000 358.780518 348.500000 332.055501 348.500000 305.330485 348.500000 278.605469 "/>
<path style="fill:rgb(0,0,0);stroke:none" d="M348.500000 278.605469 L344.916714 291.101871 L352.083286 291.101871 z"/>
</g>
<g>
<path style="fill:none;stroke:rgb(0,0,0);stroke-width:1" d="M563.000000 1169.725586 C563.000000 1156.392253 563.000000 1143.058919 563.000000 1129.725586 "/>
<path style="fill:rgb(0,0,0);stroke:none" d="M563.000000 1129.725586 L559.416714 1142.221988 L566.583286 1142.221988 z"/>
</g>
<g>
<path style="fill:none;stroke:rgb(0,0,0);stroke-width:1" d="M468.750000 325.523438 C468.750000 325.523438 468.750000 325.523438 468.750000 325.523438 468.750000 325.523438 468.750000 325.523438 468.750000 325.523438 468.750000 325.523438 468.750000 325.523438 468.750000 325.523438 468.750000 325.523438 468.750000 325.523438 468.750000 325.523438 468.750000 312.190104 468.750000 298.856771 468.750000 285.523438 "/>
<path style="fill:rgb(0,0,0);stroke:none" d="M468.750000 285.523438 L465.166714 298.019840 L472.333286 298.019840 z"/>
</g>
<g>
<path style="fill:none;stroke:rgb(0,0,0);stroke-width:1" d="M181.000000 225.348389 C181.000000 225.348389 181.000000 225.348389 181.000000 225.348389 181.000000 225.348389 181.000000 225.348389 181.000000 225.348389 181.000000 225.348389 181.000000 225.348389 181.000000 225.348389 181.000000 225.348389 181.000000 225.348389 181.000000 225.348389 181.000000 192.596029 181.000000 159.843669 181.000000 127.091309 "/>
<path style="fill:rgb(0,0,0);stroke:none" d="M181.000000 127.091309 L177.416714 139.587711 L184.583286 139.587711 z"/>
</g>
<g>
<path style="fill:none;stroke:rgb(0,0,0);stroke-width:1" d="M611.000000 525.036255 C611.000000 525.036255 611.000000 525.036255 611.000000 525.036255 611.000000 525.036255 611.000000 525.036255 611.000000 525.036255 611.000000 525.036255 611.000000 525.036255 611.000000 525.036255 611.000000 525.036255 611.000000 525.036255 611.000000 525.036255 611.000000 522.814033 611.000000 520.591810 611.000000 518.369588 611.000000 515.036255 611.000000 515.036255 525.166667 486.161255 496.555556 476.536255 467.944444 466.911255 439.333333 457.286255 353.500000 428.411255 353.500000 428.411255 353.500000 411.867676 353.500000 400.838623 353.500000 389.809570 353.500000 378.780518 "/>
<path style="fill:rgb(0,0,0);stroke:none" d="M353.500000 378.780518 L349.916714 391.276920 L357.083286 391.276920 z"/>
</g>
<g>
<path style="fill:none;stroke:rgb(0,0,0);stroke-width:1" d="M503.000000 185.173340 C503.000000 185.173340 503.000000 185.173340 503.000000 185.173340 503.000000 185.173340 503.000000 185.173340 503.000000 185.173340 503.000000 185.173340 503.000000 185.173340 503.000000 185.173340 503.000000 185.173340 503.000000 185.173340 503.000000 185.173340 503.000000 165.812663 503.000000 146.451986 503.000000 127.091309 "/>
<path style="fill:rgb(0,0,0);stroke:none" d="M503.000000 127.091309 L499.416714 139.587711 L506.583286 139.587711 z"/>
</g>
<g>
<path style="fill:none;stroke:rgb(0,0,0);stroke-width:1" d="M589.500000 1043.211426 C589.500000 1040.989204 589.500000 1038.766981 589.500000 1036.544759 589.500000 1033.211426 589.500000 1033.211426 600.833333 1019.878092 604.611111 1015.433648 608.388889 1010.989204 612.166667 1006.544759 623.500000 993.211426 623.500000 993.211426 623.500000 988.211426 623.500000 984.878092 623.500000 981.544759 623.500000 978.211426 "/>
<path style="fill:rgb(0,0,0);stroke:none" d="M623.500000 978.211426 L619.916714 990.707828 L627.083286 990.707828 z"/>
</g>
<g>
<path style="fill:none;stroke:rgb(0,0,0);stroke-width:1" d="M623.500000 886.937012 C623.500000 886.937012 623.500000 886.937012 623.500000 886.937012 623.500000 886.937012 623.500000 886.937012 623.500000 886.937012 623.500000 886.937012 623.500000 886.937012 623.500000 886.937012 623.500000 886.937012 623.500000 886.937012 623.500000 886.937012 623.500000 852.564168 623.500000 818.191325 623.500000 783.818481 "/>
<path style="fill:rgb(0,0,0);stroke:none" d="M623.500000 783.818481 L619.916714 796.314883 L627.083286 796.314883 z"/>
</g>
<g>
<path style="fill:none;stroke:rgb(0,0,0);stroke-width:1" d="M376.500000 192.091309 C376.500000 189.869086 376.500000 187.646864 376.500000 185.424642 376.500000 182.091309 376.500000 182.091309 406.000000 168.757975 415.833333 164.313531 425.666667 159.869086 435.500000 155.424642 465.000000 142.091309 465.000000 142.091309 465.000000 137.091309 465.000000 133.757975 465.000000 130.424642 465.000000 127.091309 "/>
<path style="fill:rgb(0,0,0);stroke:none" d="M465.000000 127.091309 L461.416714 139.587711 L468.583286 139.587711 z"/>
</g>
<g>
<path style="fill:none;stroke:rgb(0,0,0);stroke-width:1" d="M568.500000 683.468384 C568.500000 681.246162 568.500000 679.023939 568.500000 676.801717 568.500000 673.468384 568.500000 673.468384 551.000000 657.829061 545.166667 652.615953 539.333333 647.402846 533.500000 642.189738 516.000000 626.550415 516.000000 626.550415 516.000000 621.550415 516.000000 618.217082 516.000000 614.883748 516.000000 611.550415 "/>
<path style="fill:rgb(0,0,0);stroke:none" d="M516.000000 611.550415 L512.416714 624.046817 L519.583286 624.046817 z"/>
</g>
<g>
<path style="fill:none;stroke:rgb(0,0,0);stroke-width:1" d="M494.750000 525.036255 C494.750000 522.814033 494.750000 520.591810 494.750000 518.369588 494.750000 515.036255 494.750000 515.036255 398.500000 486.161255 366.416667 476.536255 334.333333 466.911255 302.250000 457.286255 206.000000 428.411255 206.000000 428.411255 206.000000 423.411255 206.000000 420.077922 206.000000 416.744588 206.000000 413.411255 "/>
<path style="fill:rgb(0,0,0);stroke:none" d="M206.000000 413.411255 L202.416714 425.907657 L209.583286 425.907657 z"/>
</g>
<g>
<path style="fill:none;stroke:rgb(0,0,0);stroke-width:1" d="M229.500000 683.468384 C229.500000 681.246162 229.500000 679.023939 229.500000 676.801717 229.500000 673.468384 229.500000 673.468384 256.500000 660.135050 265.500000 655.690606 274.500000 651.246162 283.500000 646.801717 310.500000 633.468384 310.500000 633.468384 310.500000 628.468384 310.500000 625.135050 310.500000 621.801717 310.500000 618.468384 "/>
<path style="fill:rgb(0,0,0);stroke:none" d="M310.500000 618.468384 L306.916714 630.964786 L314.083286 630.964786 z"/>
<g>
<circle r="5.0" style="fill:rgb(255,255,128);stroke-width:0.75;stroke:rgb(128,82,0)" cx="270.992525426" cy="652.978247776"/>
</g>
</g>
<g>
<path style="fill:none;stroke:rgb(0,0,0);stroke-width:1" d="M537.250000 525.036255 C537.250000 525.036255 537.250000 525.036255 537.250000 525.036255 537.250000 525.036255 537.250000 525.036255 537.250000 525.036255 537.250000 525.036255 537.250000 525.036255 537.250000 525.036255 537.250000 525.036255 537.250000 525.036255 537.250000 525.036255 537.250000 525.036255 537.250000 525.036255 537.250000 525.036255 537.250000 525.036255 537.250000 525.036255 537.250000 525.036255 537.250000 525.036255 537.250000 525.036255 537.250000 525.036255 537.250000 525.036255 537.250000 525.036255 537.250000 525.036255 537.250000 445.198649 537.250000 365.361043 537.250000 285.523438 "/>
<path style="fill:rgb(0,0,0);stroke:none" d="M537.250000 285.523438 L533.666714 298.019840 L540.833286 298.019840 z"/>
</g>
<g>
<path style="fill:none;stroke:rgb(0,0,0);stroke-width:1" d="M68.000000 325.523438 C68.000000 323.301215 68.000000 321.078993 68.000000 318.856771 68.000000 315.523438 68.000000 315.523438 104.000000 297.131755 116.000000 291.001194 128.000000 284.870633 140.000000 278.740072 176.000000 260.348389 176.000000 260.348389 176.000000 255.348389 176.000000 252.015055 176.000000 248.681722 176.000000 245.348389 "/>
<path style="fill:rgb(0,0,0);stroke:none" d="M176.000000 245.348389 L172.416714 257.844791 L179.583286 257.844791 z"/>
</g>
<g>
<path style="fill:none;stroke:rgb(0,0,0);stroke-width:1" d="M320.500000 192.091309 C320.500000 189.869086 320.500000 187.646864 320.500000 185.424642 320.500000 182.091309 320.500000 182.091309 287.166667 168.757975 276.055556 164.313531 264.944444 159.869086 253.833333 155.424642 220.500000 142.091309 220.500000 142.091309 220.500000 137.091309 220.500000 133.757975 220.500000 130.424642 220.500000 127.091309 "/>
<path style="fill:rgb(0,0,0);stroke:none" d="M220.500000 127.091309 L216.916714 139.587711 L224.083286 139.587711 z"/>
</g>
<g>
<path style="fill:none;stroke:rgb(0,0,0);stroke-width:1" d="M343.500000 518.118286 C343.500000 518.118286 343.500000 518.118286 343.500000 518.118286 343.500000 518.118286 343.500000 518.118286 343.500000 518.118286 343.500000 518.118286 343.500000 518.118286 343.500000 518.118286 343.500000 518.118286 343.500000 518.118286 343.500000 518.118286 343.500000 471.672363 343.500000 425.226440 343.500000 378.780518 "/>
<path style="fill:rgb(0,0,0);stroke:none" d="M343.500000 378.780518 L339.916714 391.276920 L347.083286 391.276920 z"/>
</g>
<g>
<rect x="20.0" y="325.5234375" width="96.0" style="fill:rgb(255,255,255);stroke-width:1;stroke:rgb(0,0,0)" rx="10" ry="10" height="86.5141601562"/>
<text style="fill:rgb(0,0,0);font-family:Arial;font-size:11px">
<tspan x="38.5" y="351.716308594">La sociedad </tspan>
<tspan x="41.5" y="365.552246094">siempre ha  </tspan>
<tspan x="35.0" y="379.388183594">exigido que el </tspan>
<tspan x="28.0" y="393.224121094">político sea ético</tspan>
</text>
</g>
<g>
<rect x="409.0" y="692.734863281" width="102.0" style="fill:rgb(255,255,255);stroke-width:1;stroke:rgb(0,0,0)" rx="10" ry="10" height="81.8171386719"/>
<text style="fill:rgb(0,0,0);font-family:Arial;font-size:14px">
<tspan x="417.0" y="721.146484375">Los 7 Hábitos </tspan>
<tspan x="432.5" y="738.126953125">enseñan </tspan>
<tspan x="445.0" y="755.107421875">ética</tspan>
</text>
</g>
<g>
<rect x="161.25" y="26.7412109375" width="79.0" style="fill:rgb(255,255,255);stroke-width:1;stroke:rgb(0,0,0)" rx="10" ry="10" height="100.350097656"/>
<text style="fill:rgb(0,0,0);font-family:Arial;font-size:11px">
<tspan x="175.25" y="52.9340820312">Establecer </tspan>
<tspan x="175.75" y="66.7700195312">relaciones </tspan>
<tspan x="169.25" y="80.6059570312">sociales solo </tspan>
<tspan x="170.75" y="94.4418945312">con políticos </tspan>
<tspan x="186.25" y="108.277832031">éticos</tspan>
</text>
</g>
<g>
<rect x="146.0" y="324.149780273" width="80.0" style="fill:rgb(255,255,255);stroke-width:1;stroke:rgb(0,0,0)" rx="10" ry="10" height="89.2614746094"/>
<text style="fill:rgb(0,0,0);font-family:Arial;font-size:12px">
<tspan x="166.0" y="351.077026367">Existen </tspan>
<tspan x="163.0" y="365.541870117">políticos </tspan>
<tspan x="154.0" y="380.006713867">éticos entre </tspan>
<tspan x="161.5" y="394.471557617">nosotros</tspan>
</text>
</g>
<g>
<rect x="578.0" y="886.937011719" width="91.0" style="fill:rgb(255,255,255);stroke-width:1;stroke:rgb(0,0,0)" rx="10" ry="10" height="91.2744140625"/>
<text style="fill:rgb(0,0,0);font-family:Arial;font-size:12px">
<tspan x="603.5" y="913.864257812">Existen </tspan>
<tspan x="597.0" y="928.958007812">personas </tspan>
<tspan x="586.0" y="944.051757812">consiguiendo </tspan>
<tspan x="603.0" y="959.145507812">lo malo</tspan>
</text>
</g>
<g>
<rect x="292.5" y="192.091308594" width="112.0" style="fill:rgb(255,255,255);stroke-width:1;stroke:rgb(0,0,0)" rx="10" ry="10" height="86.5141601562"/>
<text style="fill:rgb(0,0,0);font-family:Arial;font-size:11px">
<tspan x="303.5" y="218.284179688">Mejorando nuestra </tspan>
<tspan x="302.0" y="232.120117188">efectividad también  </tspan>
<tspan x="304.5" y="245.956054688">mejorará nuestras </tspan>
<tspan x="300.5" y="259.791992188">habilidades políticas</tspan>
</text>
</g>
<g>
<rect x="731.0" y="33.6591796875" width="84.0" style="fill:rgb(255,255,255);stroke-width:1;stroke:rgb(0,0,0)" rx="10" ry="10" height="86.5141601562"/>
<text style="fill:rgb(0,0,0);font-family:Arial;font-size:11px">
<tspan x="741.5" y="59.8520507812">Los votantes </tspan>
<tspan x="739.0" y="73.6879882812">logran elegir a </tspan>
<tspan x="764.0" y="87.5239257812">sus </tspan>
<tspan x="742.5" y="101.359863281">gobernantes</tspan>
</text>
</g>
<g>
<rect x="181.0" y="683.468383789" width="97.0" style="fill:rgb(255,255,255);stroke-width:1;stroke:rgb(0,0,0)" rx="10" ry="10" height="100.350097656"/>
<text style="fill:rgb(0,0,0);font-family:Arial;font-size:11px">
<tspan x="198.0" y="709.661254883">Jaime Dussel </tspan>
<tspan x="189.0" y="723.497192383">enseña que ante </tspan>
<tspan x="201.0" y="737.333129883">todo que un </tspan>
<tspan x="190.0" y="751.169067383">político debe ser </tspan>
<tspan x="218.0" y="765.005004883">ético</tspan>
</text>
<g>
<circle r="5.0" style="fill:rgb(255,255,128);stroke-width:0.75;stroke:rgb(128,82,0)" cx="273.0" cy="778.818481445"/>
</g>
</g>
<g>
<rect x="446.0" y="26.7412109375" width="114.0" style="fill:rgb(255,255,255);stroke-width:1;stroke:rgb(0,0,0)" rx="10" ry="10" height="100.350097656"/>
<text style="fill:rgb(0,0,0);font-family:Arial;font-size:11px">
<tspan x="467.5" y="52.9340820312">El político debe </tspan>
<tspan x="466.5" y="66.7700195312">diseñar y dar a </tspan>
<tspan x="473.0" y="80.6059570312">conocer a la </tspan>
<tspan x="454.0" y="94.4418945312">población proyectos </tspan>
<tspan x="471.5" y="108.277832031">de desarrollo</tspan>
</text>
</g>
<g>
<rect x="588.5" y="525.036254883" width="90.0" style="fill:rgb(255,255,255);stroke-width:1;stroke:rgb(0,0,0)" rx="10" ry="10" height="86.5141601562"/>
<text style="fill:rgb(0,0,0);font-family:Arial;font-size:11px">
<tspan x="596.5" y="551.229125977">AMLO dice que </tspan>
<tspan x="597.5" y="565.065063477">un politíco ante </tspan>
<tspan x="600.0" y="578.901000977">todo debe ser </tspan>
<tspan x="614.0" y="592.736938477">efectivo</tspan>
</text>
</g>
<g>
<rect x="434.5" y="185.173339844" width="137.0" style="fill:rgb(255,255,255);stroke-width:1;stroke:rgb(0,0,0)" rx="10" ry="10" height="100.350097656"/>
<text style="fill:rgb(0,0,0);font-family:Arial;font-size:11px">
<tspan x="449.0" y="211.366210938">La habilidad política no </tspan>
<tspan x="454.5" y="225.202148438">esta en terminos del </tspan>
<tspan x="450.0" y="239.038085938">prestigio moral de una </tspan>
<tspan x="448.0" y="252.874023438">persona sino en si esa </tspan>
<tspan x="442.5" y="266.709960938">persona es efectiva o no</tspan>
</text>
<g>
<circle r="5.0" style="fill:rgb(255,255,128);stroke-width:0.75;stroke:rgb(128,82,0)" cx="566.5" cy="280.5234375"/>
</g>
</g>
<g>
<rect x="473.5" y="525.036254883" width="85.0" style="fill:rgb(255,255,255);stroke-width:1;stroke:rgb(0,0,0)" rx="10" ry="10" height="86.5141601562"/>
<text style="fill:rgb(0,0,0);font-family:Arial;font-size:11px">
<tspan x="481.5" y="551.229125977">Todo el tiempo </tspan>
<tspan x="495.5" y="565.065063477">tenemos </tspan>
<tspan x="482.5" y="578.901000977">políticos entre </tspan>
<tspan x="494.5" y="592.736938477">nosotros</tspan>
</text>
</g>
<g>
<rect x="308.0" y="692.04284668" width="71.0" style="fill:rgb(255,255,255);stroke-width:1;stroke:rgb(0,0,0)" rx="10" ry="10" height="83.201171875"/>
<text style="fill:rgb(0,0,0);font-family:Arial;font-size:14px">
<tspan x="318.5" y="720.454467773">La ética </tspan>
<tspan x="316.0" y="738.063842773">habla de </tspan>
<tspan x="320.5" y="755.673217773">hábitos</tspan>
</text>
</g>
<g>
<rect x="526.0" y="1169.72558594" width="74.0" style="fill:rgb(255,255,255);stroke-width:1;stroke:rgb(0,0,0)" rx="10" ry="10" height="91.2744140625"/>
<text style="fill:rgb(0,0,0);font-family:Arial;font-size:12px">
<tspan x="534.0" y="1196.65283203">Al árbol se </tspan>
<tspan x="536.5" y="1211.74658203">le conoce </tspan>
<tspan x="542.0" y="1226.84033203">por sus </tspan>
<tspan x="547.5" y="1241.93408203">frutos</tspan>
</text>
</g>
<g>
<rect x="590.0" y="19.8232421875" width="111.0" style="fill:rgb(255,255,0);stroke-width:1;stroke:rgb(0,0,0)" rx="10" ry="10" height="114.186035156"/>
<text style="fill:rgb(0,0,0);font-family:Arial;font-size:11px">
<tspan x="618.5" y="46.0161132812">¿Cómo nos </tspan>
<tspan x="598.0" y="59.8520507812">podemos relacionar </tspan>
<tspan x="607.0" y="73.6879882812">con los políticos </tspan>
<tspan x="613.5" y="87.5239257812">corruptos sin </tspan>
<tspan x="614.0" y="101.359863281">comprometer </tspan>
<tspan x="601.5" y="115.195800781">nuestros valores?</tspan>
</text>
</g>
<g>
<rect x="457.0" y="887.943481445" width="91.0" style="fill:rgb(255,255,255);stroke-width:1;stroke:rgb(0,0,0)" rx="10" ry="10" height="89.2614746094"/>
<text style="fill:rgb(0,0,0);font-family:Arial;font-size:12px">
<tspan x="482.5" y="914.870727539">Existen </tspan>
<tspan x="476.0" y="929.335571289">personas </tspan>
<tspan x="465.0" y="943.800415039">consiguiendo </tspan>
<tspan x="478.5" y="958.265258789">lo bueno</tspan>
</text>
</g>
<g>
<rect x="845.0" y="26.7412109375" width="127.0" style="fill:rgb(255,255,255);stroke-width:1;stroke:rgb(0,0,0)" rx="10" ry="10" height="100.350097656"/>
<text style="fill:rgb(0,0,0);font-family:Arial;font-size:11px">
<tspan x="855.0" y="52.9340820312">La concepción de que </tspan>
<tspan x="866.5" y="66.7700195312">las personas son </tspan>
<tspan x="870.5" y="80.6059570312">buenas y malas </tspan>
<tspan x="877.0" y="94.4418945312">tambien se le </tspan>
<tspan x="853.0" y="108.277832031">denomina maniqueismo</tspan>
</text>
</g>
<g>
<rect x="541.0" y="683.468383789" width="110.0" style="fill:rgb(255,255,255);stroke-width:1;stroke:rgb(0,0,0)" rx="10" ry="10" height="100.350097656"/>
<text style="fill:rgb(0,0,0);font-family:Arial;font-size:11px">
<tspan x="551.0" y="709.661254883">Todo el tiempo hay </tspan>
<tspan x="549.0" y="723.497192383">personas buenas y </tspan>
<tspan x="582.0" y="737.333129883">malas </tspan>
<tspan x="564.0" y="751.169067383">consiguiendo </tspan>
<tspan x="581.0" y="765.005004883">cosas</tspan>
</text>
</g>
<g>
<rect x="294.625" y="40.5771484375" width="97.0" style="fill:rgb(255,255,0);stroke-width:1;stroke:rgb(0,0,0)" rx="10" ry="10" height="72.6782226562"/>
<text style="fill:rgb(0,0,0);font-family:Arial;font-size:11px">
<tspan x="304.125" y="66.7700195312">¿Como medimos </tspan>
<tspan x="302.625" y="80.6059570312">la ética que tiene </tspan>
<tspan x="316.125" y="94.4418945312">un político?</tspan>
</text>
</g>
<g>
<rect x="426.25" y="325.5234375" width="85.0" style="fill:rgb(255,255,255);stroke-width:1;stroke:rgb(0,0,0)" rx="10" ry="10" height="86.5141601562"/>
<text style="fill:rgb(0,0,0);font-family:Arial;font-size:11px">
<tspan x="442.25" y="351.716308594">AMLO dice </tspan>
<tspan x="434.25" y="365.552246094">que un político </tspan>
<tspan x="449.75" y="379.388183594">no es ni </tspan>
<tspan x="435.75" y="393.224121094">bueno ni malo</tspan>
</text>
</g>
<g>
<rect x="294.0" y="518.118286133" width="99.0" style="fill:rgb(255,255,255);stroke-width:1;stroke:rgb(0,0,0)" rx="10" ry="10" height="100.350097656"/>
<text style="fill:rgb(0,0,0);font-family:Arial;font-size:11px">
<tspan x="317.0" y="544.311157227">Desarrollar </tspan>
<tspan x="310.0" y="558.147094727">hábitos éticos </tspan>
<tspan x="302.0" y="571.983032227">que nos permitan </tspan>
<tspan x="324.0" y="585.818969727">ser más </tspan>
<tspan x="321.0" y="599.654907227">efectivos</tspan>
</text>
</g>
<g>
<rect x="510.0" y="1043.21142578" width="106.0" style="fill:rgb(255,255,255);stroke-width:1;stroke:rgb(0,0,0)" rx="10" ry="10" height="86.5141601562"/>
<text style="fill:rgb(0,0,0);font-family:Arial;font-size:11px">
<tspan x="519.5" y="1069.40429688">Entre los votantes </tspan>
<tspan x="518.0" y="1083.24023438">podemos distinguir </tspan>
<tspan x="524.5" y="1097.07617188">entre  personas </tspan>
<tspan x="525.0" y="1110.91210938">buenas o malas</tspan>
</text>
</g>
<g>
<circle r="10.0" style="fill:rgb(230,255,255);stroke-width:1;stroke:rgb(0,0,0)" cx="181.0" cy="235.348388672"/>
<text style="font-family:Arial;font-size:8px;font-weight:bold" x="172.0" y="238.309326172">AND</text>
</g>
<g>
<circle r="10.0" style="fill:rgb(230,255,255);stroke-width:1;stroke:rgb(0,0,0)" cx="348.5" cy="368.780517578"/>
<text style="font-family:Arial;font-size:8px;font-weight:bold" x="339.5" y="371.741455078">AND</text>
</g>
</svg>
